<?xml version="1.0" encoding="UTF-8"?>
<!-- Generator: Adobe Illustrator 15.0.0, SVG Export Plug-In . SVG Version: 6.00 Build 0)  -->
<svg xmlns="http://www.w3.org/2000/svg" xmlns:xlink="http://www.w3.org/1999/xlink" version="1.1" id="Layer_1" x="0px" y="0px" width="26px" height="26px" viewBox="0 0 26 26" enable-background="new 0 0 26 26" xml:space="preserve">
    <g>
        <path fill-rule="evenodd" clip-rule="evenodd" d="M19.745,14.093c-1.877-2.358-1.562-4.979-3.056-4.979   c-0.646,0-1.588,0.434-2.053,1.154c-0.524-2.227-1.52-3.733-2.664-3.733c-1.368,0-2.525,2.151-2.916,5.117   c-0.274-0.253-0.93-0.398-1.254-0.398c-1.17,0-1.725,1.572-2.118,4.105c-0.393,2.532-2.174,4.104-1.004,4.104h5.779   c-0.01-0.15-0.016-0.304-0.016-0.459c0-2.351,1.183-4.257,2.642-4.257c1.458,0,2.642,1.906,2.642,4.257   c0,0.155-0.006,0.309-0.017,0.459h6.174C23.381,19.464,21.624,16.451,19.745,14.093z"/>
</g>
</svg>